<svg 
width="15px" 
height="15px" 
viewBox="0 0 22 24" 
fill="none" 
xmlns="http://www.w3.org/2000/svg"
color='#113229'
>
<title>Profile icon</title>
<path fill-rule="evenodd" clip-rule="evenodd" d="M11.002 2.827a2.347 2.347 0 1 0 0 4.693 2.347 2.347 0 0 0 0-4.693ZM6.31 5.174a4.693 4.693 0 1 1 9.387 0 4.693 4.693 0 0 1-9.387 0ZM2.877 18.09c.517 1.128 1.573 1.979 3.002 2.574 1.581.66 3.473.937 5.122.937 1.65 0 3.54-.278 5.122-.937 1.429-.595 2.485-1.446 3.002-2.575-.533-1.076-1.774-1.95-3.412-2.58-1.77-.68-3.68-.948-4.712-.948-1.032 0-2.943.268-4.712.948-1.638.63-2.88 1.504-3.412 2.58Zm2.57-4.771c2.043-.786 4.24-1.105 5.554-1.105s3.51.319 5.554 1.105c1.995.767 4.187 2.114 4.946 4.39.08.242.08.502 0 .743-.734 2.2-2.54 3.572-4.476 4.378-1.938.808-4.153 1.117-6.024 1.117-1.87 0-4.086-.309-6.025-1.117-1.935-.806-3.741-2.178-4.475-4.378-.08-.241-.08-.502 0-.742.759-2.277 2.95-3.624 4.945-4.391Z" fill="currentColor"></path></svg>