<svg
  width="93"
  height="24"
  viewBox="0 0 93 24"
  fill="none"
  xmlns="http://www.w3.org/2000/svg"
  color="#113229"
>
  <title>Motto logo black</title>
  <path
    d="M20.325 4.834c-.932 0-3.49.382-4.56 2.32-.554-1.453-2.28-2.32-4.215-2.32-1.416 0-3.8.486-4.872 2.7l-.4-2.305H.923V22.62H7.14v-9.83c0-1.644.831-2.163 2.109-2.163 1.277 0 1.623.968 1.623 2.354v9.657h6.165v-9.83c0-1.662.987-2.215 2.16-2.215 1.245 0 1.59 1.176 1.59 2.389v9.656h6.189V12.048c-.075-4.569-2.356-7.245-6.651-7.214ZM55.044 14.927v-4.852h4.32V5.23h-4.839c.865-.623 1.384-1.42 1.384-4.395h-5.482a5.387 5.387 0 0 1-3.833 5.71v3.531h2.314v5.537c0 5.503 3.316 7.198 8.154 7.198.855.008 1.71-.05 2.556-.171v-4.95a13.1 13.1 0 0 1-1.774.137c-1.906 0-2.8-.742-2.8-2.9ZM68.824 14.927v-4.852h4.36V5.23H68.35c.862-.623 1.381-1.42 1.381-4.395h-5.503c.052.379.42 4.395-3.833 4.395v4.846h2.314v5.537c0 5.503 3.316 7.198 8.152 7.198.856.008 1.71-.05 2.558-.171v-4.95c-.595.086-1.196.132-1.797.137-1.901 0-2.797-.742-2.797-2.9ZM82.78 4.543c-5.407 0-9.295 3.775-9.295 9.278s3.636 9.345 9.329 9.345c5.692 0 9.263-3.842 9.263-9.345s-3.765-9.278-9.297-9.278ZM90.184 4.67a.423.423 0 0 0 .294.133.363.363 0 0 0 .218-.062.38.38 0 0 0 .135-.182l-.138-.06a.208.208 0 0 1-.215.161.323.323 0 0 1-.099-.023.238.238 0 0 1-.08-.062.243.243 0 0 1-.052-.091.257.257 0 0 1 0-.101v-.021a.26.26 0 0 1 .072-.166.26.26 0 0 1 .166-.07.203.203 0 0 1 .213.163l.14-.054a.348.348 0 0 0-.132-.19.338.338 0 0 0-.22-.062.4.4 0 0 0-.4.4.383.383 0 0 0 .026.16c.016.047.04.09.072.128Z"
    fill="currentColor"
  ></path>
  <path
    d="M90.198 5.062a.735.735 0 0 0 .807-.163.726.726 0 0 0 .2-.382.739.739 0 0 0-.044-.43.78.78 0 0 0-.278-.322.738.738 0 0 0-.415-.12.725.725 0 0 0-.52.22.731.731 0 0 0-.213.52c0 .146.042.29.122.413.085.12.203.212.34.264Zm-.2-1.022a.598.598 0 0 1 .532-.26.597.597 0 0 1-.062 1.192V4.95a.577.577 0 0 1-.47-.906V4.04ZM37.498 4.543c-5.41 0-9.297 3.775-9.297 9.278s3.636 9.345 9.334 9.345c5.698 0 9.258-3.842 9.258-9.345s-3.758-9.278-9.295-9.278Z"
    fill="currentColor"
  ></path>
</svg>
