<svg width="33" height="32" viewBox="0 0 33 32" fill="none" xmlns="http://www.w3.org/2000/svg">
<path d="M16.5 32C13.6048 32 10.9229 31.2838 8.45429 29.8514C6.01619 28.419 4.08095 26.4838 2.64857 24.0457C1.21619 21.5771 0.5 18.8952 0.5 16C0.5 13.1048 1.21619 10.4381 2.64857 8C4.08095 5.53143 6.01619 3.58095 8.45429 2.14857C10.9229 0.71619 13.6048 0 16.5 0C19.3952 0 22.0619 0.71619 24.5 2.14857C26.9686 3.58095 28.919 5.53143 30.3514 8C31.7838 10.4381 32.5 13.1048 32.5 16C32.5 18.8952 31.7838 21.5771 30.3514 24.0457C28.919 26.4838 26.9686 28.419 24.5 29.8514C22.0619 31.2838 19.3952 32 16.5 32ZM22.1229 23.7714V20.8H15.54C15.7533 20.3733 16.0581 20.0076 16.4543 19.7029C16.8505 19.3981 17.399 19.0324 18.1 18.6057C19.38 17.9048 20.3705 17.1581 21.0714 16.3657C21.7724 15.5429 22.1229 14.3848 22.1229 12.8914C22.1229 11.3981 21.6352 10.2248 20.66 9.37143C19.7152 8.48762 18.3286 8.04571 16.5 8.04571C14.8543 8.04571 13.5133 8.50286 12.4771 9.41714C11.4714 10.3314 10.9686 11.5048 10.9686 12.9371C10.9686 14.2781 11.3952 15.3752 12.2486 16.2286L14.7171 14.5829C14.2905 14.0952 14.0771 13.5467 14.0771 12.9371C14.0771 12.3886 14.2905 11.9314 14.7171 11.5657C15.1438 11.1695 15.7076 10.9714 16.4086 10.9714C17.201 10.9714 17.8105 11.1543 18.2371 11.52C18.6638 11.8857 18.8771 12.3886 18.8771 13.0286C18.8771 13.821 18.6181 14.4762 18.1 14.9943C17.5819 15.5124 16.6371 16.1829 15.2657 17.0057C13.8943 17.7981 12.8429 18.6971 12.1114 19.7029C11.4105 20.6781 11.06 22.0343 11.06 23.7714H22.1229Z" fill="#27705D"></path>
</svg>
