<svg width="304" height="128" viewBox="0 0 304 128" fill="none" xmlns="http://www.w3.org/2000/svg">
<path d="M149.691 76.2144C148.714 75.2381 147.131 75.2381 146.155 76.2144C145.179 77.1907 145.179 78.7736 146.155 79.7499L149.691 76.2144ZM143.398 58.0999L143.393 60.5999C144.56 60.6024 145.574 59.7967 145.835 58.6589L143.398 58.0999ZM110.06 58.03L110.065 55.53L110.064 55.53L110.06 58.03ZM105.579 62.5109L103.079 62.5155L103.079 62.5166L105.579 62.5109ZM105.588 66.358L103.088 66.3636C103.088 66.4271 103.091 66.4906 103.096 66.5539L105.588 66.358ZM109.763 70.5329L109.77 68.0329L109.766 68.0329L109.763 70.5329ZM114.252 70.546L116.752 70.5411C116.75 69.1652 115.636 68.05 114.26 68.046L114.252 70.546ZM120.355 76.0062L120.705 78.4816C120.724 78.4789 120.743 78.476 120.762 78.4728L120.355 76.0062ZM124.513 71.2061L124.517 68.7061C123.208 68.7039 122.118 69.7122 122.02 71.0178L124.513 71.2061ZM125.796 71.2083L128.296 71.2047C128.294 69.8271 127.178 68.7106 125.8 68.7083L125.796 71.2083ZM132.541 77.9537L132.891 80.4292C132.909 80.4266 132.928 80.4237 132.947 80.4207L132.541 77.9537ZM137.02 73.475L134.647 72.6893C134.606 72.8131 134.574 72.9399 134.553 73.0685L137.02 73.475ZM139.577 70.2749L139.583 67.775H139.582L139.577 70.2749ZM143.424 70.2837L145.914 70.0521C145.794 68.7689 144.719 67.7866 143.43 67.7837L143.424 70.2837ZM146.159 79.7543C147.136 80.7306 148.719 80.7306 149.695 79.7543C150.671 78.778 150.671 77.1951 149.695 76.2188L146.159 79.7543ZM166.498 69.0477L168.261 70.8195L168.269 70.8123L166.498 69.0477ZM156.882 69.0281L158.653 67.2635L158.647 67.2571L156.882 69.0281ZM156.863 59.4126L155.098 57.6416L155.091 57.6489L156.863 59.4126ZM166.48 59.4301L164.709 61.1947L164.716 61.2011L166.48 59.4301ZM146.155 79.7499C154.753 88.3478 168.681 88.3879 177.263 79.8067L173.727 76.2712C167.112 82.8859 156.35 82.8735 149.691 76.2144L146.155 79.7499ZM177.263 79.8067C185.842 71.2276 185.801 57.2992 177.203 48.7015L173.668 52.237C180.327 58.8963 180.339 69.6589 173.727 76.2712L177.263 79.8067ZM177.203 48.7015C168.605 40.1027 154.683 40.071 146.105 48.649L149.64 52.1845C156.254 45.5712 167.01 45.5788 173.668 52.237L177.203 48.7015ZM146.105 48.649C144.081 50.6725 142.809 52.8645 142.043 54.5365C141.658 55.3766 141.395 56.0986 141.224 56.6226C141.139 56.885 141.077 57.0991 141.035 57.2551C141.013 57.3332 140.997 57.3968 140.985 57.4448C140.979 57.4688 140.974 57.4889 140.97 57.505C140.968 57.513 140.966 57.5201 140.965 57.5261C140.964 57.5291 140.964 57.5318 140.963 57.5343C140.963 57.5355 140.962 57.5367 140.962 57.5378C140.962 57.5384 140.962 57.5392 140.962 57.5394C140.962 57.5402 140.961 57.541 143.398 58.0999C145.835 58.6589 145.835 58.6596 145.835 58.6603C145.834 58.6605 145.834 58.6612 145.834 58.6617C145.834 58.6625 145.834 58.6633 145.834 58.6641C145.833 58.6655 145.833 58.6668 145.833 58.6677C145.832 58.6697 145.832 58.6707 145.832 58.6708C145.832 58.6709 145.833 58.6672 145.835 58.6598C145.838 58.6451 145.846 58.6158 145.858 58.5731C145.881 58.4877 145.921 58.349 145.98 58.166C146.099 57.7993 146.295 57.2604 146.588 56.6196C147.179 55.3298 148.145 53.6802 149.64 52.1845L146.105 48.649ZM143.403 55.5999L110.065 55.53L110.055 60.53L143.393 60.5999L143.403 55.5999ZM110.064 55.53C108.916 55.5283 107.248 55.8488 105.796 56.8932C104.215 58.0303 103.074 59.9048 103.079 62.5155L108.079 62.5063C108.078 61.9652 108.187 61.6364 108.289 61.439C108.392 61.2398 108.533 61.0837 108.715 60.9526C109.131 60.6538 109.707 60.5295 110.056 60.53L110.064 55.53ZM103.079 62.5166L103.088 66.3636L108.088 66.3523L108.079 62.5052L103.079 62.5166ZM103.096 66.5539C103.179 67.6125 103.573 69.1322 104.555 70.4552C105.612 71.8794 107.336 73.0294 109.759 73.0329L109.766 68.0329C109.388 68.0323 109.157 67.9505 109.01 67.8715C108.854 67.7879 108.708 67.6609 108.57 67.475C108.261 67.0592 108.106 66.4936 108.08 66.162L103.096 66.5539ZM109.755 73.0329L114.245 73.046L114.26 68.046L109.77 68.0329L109.755 73.0329ZM111.752 70.5509C111.758 73.6221 113.135 75.8383 115.062 77.1457C116.862 78.3668 119.02 78.7195 120.705 78.4816L120.006 73.5307C119.445 73.6098 118.557 73.475 117.869 73.0081C117.308 72.6275 116.755 71.9552 116.752 70.5411L111.752 70.5509ZM120.762 78.4728C123.696 77.9889 125.308 76.0956 126.112 74.4843C126.505 73.6968 126.722 72.9533 126.843 72.4125C126.904 72.1384 126.943 71.9061 126.968 71.7328C126.98 71.6458 126.988 71.5729 126.994 71.516C126.997 71.4875 127 71.463 127.002 71.4427C127.002 71.4325 127.003 71.4234 127.004 71.4153C127.004 71.4113 127.005 71.4076 127.005 71.4041C127.005 71.4023 127.005 71.4007 127.005 71.3991C127.005 71.3983 127.005 71.3971 127.005 71.3967C127.005 71.3956 127.006 71.3944 124.513 71.2061C122.02 71.0178 122.02 71.0167 122.02 71.0156C122.02 71.0153 122.02 71.0142 122.02 71.0135C122.02 71.0122 122.02 71.0109 122.02 71.0096C122.021 71.0072 122.021 71.0049 122.021 71.0029C122.021 70.9989 122.022 70.9957 122.022 70.9935C122.022 70.989 122.022 70.9879 122.022 70.9901C122.022 70.9946 122.02 71.0118 122.016 71.04C122.008 71.0969 121.992 71.195 121.964 71.3214C121.906 71.5816 121.804 71.9193 121.638 72.2526C121.323 72.8828 120.857 73.3896 119.948 73.5395L120.762 78.4728ZM124.508 73.7061L125.791 73.7083L125.8 68.7083L124.517 68.7061L124.508 73.7061ZM123.296 71.2118C123.301 74.9724 124.725 77.5779 126.923 79.0745C128.968 80.4673 131.322 80.6506 132.891 80.4292L132.192 75.4783C131.515 75.5738 130.501 75.4621 129.737 74.9417C129.125 74.5251 128.299 73.5994 128.296 71.2047L123.296 71.2118ZM132.947 80.4207C135.76 79.9584 137.438 78.2752 138.353 76.7857C138.8 76.0566 139.075 75.3643 139.24 74.8533C139.323 74.5951 139.381 74.3753 139.42 74.2098C139.439 74.1268 139.454 74.0568 139.465 74.0016C139.47 73.974 139.475 73.95 139.478 73.9299C139.48 73.9199 139.482 73.9108 139.483 73.9027C139.484 73.8987 139.484 73.8949 139.485 73.8913C139.485 73.8895 139.486 73.8878 139.486 73.8862C139.486 73.8854 139.486 73.8842 139.486 73.8838C139.486 73.8826 139.487 73.8814 137.02 73.475C134.553 73.0685 134.553 73.0674 134.554 73.0663C134.554 73.0659 134.554 73.0648 134.554 73.0641C134.554 73.0627 134.554 73.0614 134.555 73.0601C134.555 73.0574 134.555 73.055 134.556 73.0528C134.557 73.0485 134.557 73.0449 134.558 73.0422C134.559 73.0367 134.559 73.0344 134.559 73.0351C134.559 73.0366 134.556 73.0498 134.551 73.0732C134.54 73.1206 134.518 73.2063 134.482 73.3186C134.407 73.5487 134.283 73.8576 134.092 74.1693C133.728 74.7612 133.167 75.3174 132.136 75.4868L132.947 80.4207ZM139.393 74.2607C139.659 73.4586 139.711 72.7513 139.734 72.2853C139.748 72.0015 139.747 71.9327 139.757 71.7952C139.764 71.691 139.769 71.7325 139.74 71.8342C139.704 71.9588 139.619 72.1761 139.432 72.3971C139.242 72.6198 139.041 72.7377 138.92 72.7907C138.818 72.8357 138.795 72.8251 138.92 72.8076C139.041 72.7906 139.247 72.7743 139.572 72.7749L139.582 67.775C138.696 67.7731 137.743 67.8467 136.909 68.2133C135.845 68.6806 135.2 69.5154 134.93 70.4699C134.748 71.1093 134.747 71.8872 134.74 72.0417C134.725 72.3569 134.699 72.5307 134.647 72.6893L139.393 74.2607ZM139.572 72.7749L143.419 72.7837L143.43 67.7837L139.583 67.775L139.572 72.7749ZM140.935 70.5152C141.124 72.5498 142.181 74.5488 143.162 76.0427C144.185 77.5994 145.356 78.9511 146.159 79.7543L149.695 76.2188C149.106 75.6296 148.157 74.5397 147.342 73.298C146.485 71.9935 145.987 70.8373 145.914 70.0521L140.935 70.5152ZM149.695 76.2188L149.691 76.2144L146.155 79.7499L146.159 79.7543L149.695 76.2188ZM164.734 67.2759C163.926 68.0804 162.831 68.531 161.691 68.5287L161.681 73.5287C164.147 73.5337 166.514 72.5592 168.261 70.8195L164.734 67.2759ZM161.691 68.5287C160.551 68.5263 159.458 68.0713 158.653 67.2635L155.111 70.7926C156.852 72.5395 159.215 73.5236 161.681 73.5287L161.691 68.5287ZM158.647 67.2571C157.839 66.4522 157.384 65.3596 157.382 64.2193L152.382 64.2295C152.387 66.6955 153.371 69.0585 155.118 70.799L158.647 67.2571ZM157.382 64.2193C157.379 63.079 157.83 61.9845 158.634 61.1764L155.091 57.6489C153.351 59.3965 152.377 61.7636 152.382 64.2295L157.382 64.2193ZM158.627 61.1836C159.027 60.785 159.502 60.4691 160.024 60.2539L158.119 55.631C156.99 56.0964 155.963 56.7796 155.098 57.6417L158.627 61.1836ZM160.024 60.2539C160.546 60.0387 161.106 59.9285 161.67 59.9295L161.68 54.9295C160.458 54.9273 159.248 55.1657 158.119 55.631L160.024 60.2539ZM161.67 59.9295C162.235 59.9305 162.794 60.0428 163.316 60.2599L165.238 55.6439C164.11 55.1745 162.901 54.9317 161.68 54.9295L161.67 59.9295ZM163.316 60.2599C163.837 60.4769 164.311 60.7946 164.709 61.1947L168.251 57.6656C167.389 56.8003 166.365 56.1134 165.238 55.6439L163.316 60.2599ZM164.716 61.2011C165.116 61.5997 165.433 62.0732 165.65 62.5946L170.266 60.6728C169.797 59.5453 169.11 58.5212 168.245 57.6591L164.716 61.2011ZM165.65 62.5946C165.868 63.116 165.98 63.6751 165.981 64.2398L170.981 64.2308C170.979 63.0094 170.736 61.8004 170.266 60.6728L165.65 62.5946ZM165.981 64.2398C165.982 64.8046 165.872 65.3641 165.656 65.8862L170.279 67.7913C170.745 66.662 170.983 65.4521 170.981 64.2308L165.981 64.2398ZM165.656 65.8862C165.441 66.4084 165.125 66.8831 164.727 67.2832L168.269 70.8123C169.131 69.9471 169.814 68.9205 170.279 67.7913L165.656 65.8862Z" fill="#103228"></path>
<path d="M96.2032 96.2946C94.9631 95.3256 93.5196 94.66 91.985 94.3497C90.4504 94.0393 88.866 94.0925 87.3549 94.505L69.9247 98.575C70.3302 96.8353 70.3428 95.0249 69.9614 93.2796C69.58 91.5343 68.8145 89.8992 67.7224 88.497C66.6303 87.0949 65.2398 85.9619 63.6552 85.1831C62.0706 84.4043 60.333 83.9998 58.5726 84H37.7181C35.9668 83.9956 34.2319 84.3436 32.6138 85.024C30.9957 85.7045 29.5263 86.7038 28.2907 87.9643L18.8674 97.5385H6.91544C5.14766 97.5385 3.45228 98.2517 2.20226 99.5212C0.95225 100.791 0.25 102.512 0.25 104.308L0.25 121.231C0.25 123.026 0.95225 124.748 2.20226 126.017C3.45228 127.287 5.14766 128 6.91544 128H50.2408C50.5133 128 50.7848 127.966 51.049 127.898L77.7108 121.129C77.8807 121.088 78.0467 121.032 78.2065 120.96L94.3994 113.962L94.5827 113.878C96.139 113.088 97.4716 111.909 98.4552 110.451C99.4387 108.994 100.041 107.306 100.204 105.547C100.368 103.788 100.088 102.016 99.3913 100.397C98.6942 98.7786 97.6028 97.3667 96.2199 96.2946H96.2032ZM6.91544 104.308H16.9136V121.231H6.91544V104.308ZM91.6624 107.781L75.832 114.627L49.8242 121.231H23.5791V102.323L33.0065 92.7535C33.6232 92.1222 34.3573 91.6217 35.1662 91.281C35.975 90.9404 36.8425 90.7664 37.7181 90.7693H58.5726C59.8985 90.7693 61.17 91.3042 62.1075 92.2563C63.045 93.2084 63.5717 94.4997 63.5717 95.8462C63.5717 97.1927 63.045 98.484 62.1075 99.4361C61.17 100.388 59.8985 100.923 58.5726 100.923H46.9081C46.0242 100.923 45.1765 101.28 44.5515 101.914C43.9265 102.549 43.5754 103.41 43.5754 104.308C43.5754 105.205 43.9265 106.066 44.5515 106.701C45.1765 107.336 46.0242 107.692 46.9081 107.692H60.239C60.4899 107.692 60.7399 107.663 60.9847 107.608L88.8962 101.088L89.0254 101.054C89.8774 100.814 90.7869 100.902 91.5787 101.302C92.3705 101.702 92.9888 102.385 93.3145 103.22C93.6402 104.055 93.6504 104.982 93.3431 105.825C93.0358 106.667 92.4327 107.364 91.6499 107.781H91.6624Z" fill="#103228"></path>
<path d="M207.797 31.7054C209.037 32.6744 210.48 33.34 212.015 33.6503C213.55 33.9607 215.134 33.9076 216.645 33.495L234.075 29.425C233.67 31.1647 233.657 32.9751 234.039 34.7204C234.42 36.4658 235.185 38.1008 236.278 39.503C237.37 40.9051 238.76 42.0381 240.345 42.8169C241.929 43.5957 243.667 44.0002 245.427 44L266.282 44C268.033 44.0044 269.768 43.6564 271.386 42.976C273.004 42.2955 274.474 41.2962 275.709 40.0357L285.133 30.4615L297.085 30.4615C298.852 30.4615 300.548 29.7483 301.798 28.4788C303.048 27.2094 303.75 25.4876 303.75 23.6923L303.75 6.76923C303.75 4.97392 303.048 3.25214 301.798 1.98266C300.548 0.713188 298.852 4.28167e-07 297.085 5.82712e-07L253.759 4.37034e-06C253.487 -0.00012912 253.215 0.0339781 252.951 0.101548L226.289 6.87077C226.119 6.91186 225.953 6.9685 225.793 7.04L209.601 14.0377L209.417 14.1223C207.861 14.9121 206.528 16.0912 205.545 17.5485C204.561 19.0059 203.959 20.6936 203.796 22.4526C203.632 24.2115 203.912 25.9839 204.609 27.6027C205.306 29.2214 206.397 30.6334 207.78 31.7054L207.797 31.7054ZM297.085 23.6923L287.086 23.6923L287.086 6.76923L297.085 6.76923L297.085 23.6923ZM212.338 20.2188L228.168 13.3735L254.176 6.76923L280.421 6.76923L280.421 25.6765L270.994 35.2465C270.377 35.8778 269.643 36.3783 268.834 36.719C268.025 37.0596 267.158 37.2336 266.282 37.2307L245.427 37.2307C244.102 37.2307 242.83 36.6958 241.892 35.7437C240.955 34.7916 240.428 33.5003 240.428 32.1538C240.428 30.8073 240.955 29.516 241.892 28.5639C242.83 27.6118 244.102 27.0769 245.427 27.0769L257.092 27.0769C257.976 27.0769 258.823 26.7203 259.448 26.0856C260.073 25.4508 260.425 24.5899 260.425 23.6923C260.425 22.7946 260.073 21.9337 259.448 21.299C258.823 20.6643 257.976 20.3077 257.092 20.3077L243.761 20.3077C243.51 20.3084 243.26 20.3368 243.015 20.3923L215.104 26.9119L214.975 26.9458C214.123 27.186 213.213 27.0977 212.421 26.6979C211.629 26.2981 211.011 25.6151 210.685 24.7802C210.36 23.9453 210.35 23.0175 210.657 22.1755C210.964 21.3334 211.567 20.6365 212.35 20.2188L212.338 20.2188Z" fill="#103228"></path>
</svg>
