<svg width="41" height="45" viewBox="0 0 41 45" fill="none" xmlns="http://www.w3.org/2000/svg">
<path fill-rule="evenodd" clip-rule="evenodd" d="M19.9487 0.0800967C20.3148 -0.0267501 20.7038 -0.0266979 21.0698 0.0802475L39.0608 5.33625C39.9138 5.58542 40.5 6.36744 40.5 7.256V18.034C40.4999 23.9775 38.6296 29.7703 35.154 34.5917C31.6785 39.4131 26.7739 43.0186 21.1352 44.8974C20.7249 45.0342 20.2813 45.0342 19.871 44.8975C14.2306 43.0189 9.32449 39.413 5.84777 34.5906C2.37105 29.7682 0.500086 23.974 0.5 18.029V7.256C0.5 6.36724 1.0865 5.5851 1.93967 5.3361L19.9487 0.0800967ZM4.5 8.75573V18.029C4.50007 23.1343 6.10678 28.1101 9.09243 32.2513C11.9475 36.2114 15.9249 39.2162 20.5029 40.8822C25.0792 39.2161 29.0553 36.2117 31.9092 32.2526C34.8938 28.1123 36.4999 23.1379 36.5 18.034V8.75531L20.5087 4.08352L4.5 8.75573Z" fill="#27705D"></path>
<path fill-rule="evenodd" clip-rule="evenodd" d="M31.9142 14.5858C32.6953 15.3668 32.6953 16.6332 31.9142 17.4142L19.9142 29.4142C19.1332 30.1953 17.8668 30.1953 17.0858 29.4142L10.0858 22.4142C9.30474 21.6332 9.30474 20.3668 10.0858 19.5858C10.8668 18.8047 12.1332 18.8047 12.9142 19.5858L18.5 25.1716L29.0858 14.5858C29.8668 13.8047 31.1332 13.8047 31.9142 14.5858Z" fill="#27705D"></path>
</svg>
