<svg width="41" height="41" viewBox="0 0 41 41" fill="none" xmlns="http://www.w3.org/2000/svg">
<path d="M3.8996 0L3.01973 0.829856L0.822409 3.02718L-0.00744629 3.90704L0.627057 4.93225L3.8996 10.4021L4.33875 11.1835H8.93187L15.1831 17.3863C9.59763 22.9968 2.4915 30.1264 2.24145 30.378C-0.207487 32.8254 -0.212176 36.8356 2.28833 39.1689C4.73101 41.5787 8.71151 41.6413 11.0323 39.1689L11.0792 39.1189L20.6999 29.4497L30.3706 39.1673L30.5159 39.2658C32.9696 41.5787 36.8719 41.61 39.1614 39.1673V39.1204H39.2083C41.6025 36.6715 41.6276 32.691 39.1614 30.3765L39.1114 30.3296L30.9566 22.2217C36.4437 21.7091 40.7414 17.0753 40.8211 11.4773H40.8696C40.8758 11.4461 40.8696 11.4101 40.8696 11.3789V11.3304C41.0227 9.52381 40.632 7.79533 39.6975 6.29971L38.6254 4.64157L31.3473 11.918L29.15 9.62226L36.5734 2.19888L34.4245 1.32058C33.0538 0.717553 31.5743 0.401116 30.0768 0.390704C24.0693 0.390704 19.1371 5.32295 19.1371 11.3304C19.1371 11.9837 19.2777 12.551 19.3809 13.137C18.6979 13.8216 18.1853 14.3826 17.3789 15.189L11.1761 8.9862V4.34619L10.3947 3.90704L4.9248 0.634503L3.8996 0ZM30.0768 3.51634C30.2956 3.51634 30.4487 3.64449 30.6628 3.66324L24.7538 9.57225L25.8275 10.6959L30.2237 15.2375L31.2973 16.3611L37.5002 10.1583C37.5314 10.5178 37.7877 10.7803 37.744 11.1835V11.3304C37.744 15.6344 34.2339 19.1445 29.9299 19.1445C29.3563 19.1445 28.6609 19.0101 27.8795 18.8507L27.048 18.7054L26.462 19.2914L8.83341 36.97H8.7834V37.02C7.6738 38.2343 5.73122 38.264 4.4372 36.97V36.9215H4.38719C3.17289 35.8119 3.14319 33.8694 4.4372 32.5754C5.02951 31.9815 16.499 20.4135 22.1158 14.7983L22.7519 14.1638L22.5065 13.2839C22.3582 12.6429 22.2765 11.9883 22.2627 11.3304C22.2627 7.02642 25.7728 3.51634 30.0768 3.51634ZM4.38719 3.90704L8.05044 6.15437V7.71719L7.70974 8.05788H6.14693L3.8996 4.3962L4.38719 3.90704ZM27.2434 22.9046L36.9641 32.5754V32.6238H37.011C38.2269 33.7334 38.2566 35.676 36.9641 36.97H36.9141V37.02C35.8045 38.2343 33.8619 38.264 32.5679 36.97L22.8972 27.2524L27.2434 22.9046Z" fill="#27705D"></path>
</svg>
