<svg width="33" height="41" viewBox="0 0 33 41" fill="none" xmlns="http://www.w3.org/2000/svg">
<path d="M16.4999 23.4286C15.0519 23.4286 13.6363 22.9992 12.4323 22.1947C11.2283 21.3902 10.2899 20.2467 9.73578 18.9089C9.18164 17.5711 9.03665 16.099 9.31915 14.6788C9.60165 13.2586 10.2989 11.954 11.3229 10.9301C12.3468 9.90619 13.6513 9.20889 15.0716 8.92639C16.4918 8.64389 17.9639 8.78888 19.3017 9.34302C20.6395 9.89716 21.783 10.8356 22.5874 12.0396C23.3919 13.2436 23.8213 14.6591 23.8213 16.1071C23.819 18.0482 23.0469 19.9091 21.6744 21.2816C20.3018 22.6541 18.4409 23.4262 16.4999 23.4286ZM16.4999 11.7143C15.6311 11.7143 14.7818 11.9719 14.0594 12.4546C13.337 12.9373 12.7739 13.6234 12.4414 14.4261C12.1089 15.2288 12.0219 16.112 12.1914 16.9641C12.3609 17.8163 12.7793 18.599 13.3937 19.2134C14.008 19.8277 14.7908 20.2461 15.6429 20.4156C16.495 20.5851 17.3783 20.4981 18.181 20.1656C18.9837 19.8331 19.6697 19.2701 20.1524 18.5477C20.6351 17.8253 20.8928 16.976 20.8928 16.1071C20.8916 14.9424 20.4284 13.8258 19.6048 13.0022C18.7813 12.1786 17.6646 11.7154 16.4999 11.7143Z" fill="#27705D"></path>
<path d="M16.5 41L4.14727 26.4318C3.97563 26.2131 3.80576 25.9929 3.6377 25.7714C1.52763 22.9919 0.387725 19.5969 0.392839 16.1071C0.392839 11.8353 2.08984 7.73835 5.11051 4.71767C8.13119 1.697 12.2281 0 16.5 0C20.7719 0 24.8688 1.697 27.8895 4.71767C30.9101 7.73835 32.6071 11.8353 32.6071 16.1071C32.6122 19.5953 31.4728 22.9888 29.3637 25.767L29.3623 25.7714C29.3623 25.7714 28.923 26.3484 28.8571 26.426L16.5 41ZM5.97616 24.007C5.97616 24.007 6.31734 24.458 6.39495 24.5546L16.5 36.4724L26.6182 24.5385C26.6826 24.458 27.0253 24.004 27.0267 24.0026C28.7504 21.7316 29.6819 18.9582 29.6786 16.1071C29.6786 12.612 28.2901 9.25995 25.8186 6.78849C23.3472 4.31702 19.9952 2.92857 16.5 2.92857C13.0048 2.92857 9.65279 4.31702 7.18132 6.78849C4.70986 9.25995 3.32141 12.612 3.32141 16.1071C3.31834 18.9599 4.25091 21.735 5.97616 24.007Z" fill="#27705D"></path>
</svg>
