<svg width="33" height="32" viewBox="0 0 33 32" fill="none" xmlns="http://www.w3.org/2000/svg">
<path d="M16.5 32C13.6048 32 10.9229 31.2838 8.45429 29.8514C6.01619 28.419 4.08095 26.4838 2.64857 24.0457C1.21619 21.5771 0.5 18.8952 0.5 16C0.5 13.1048 1.21619 10.4381 2.64857 8C4.08095 5.53143 6.01619 3.58095 8.45429 2.14857C10.9229 0.71619 13.6048 0 16.5 0C19.3952 0 22.0619 0.71619 24.5 2.14857C26.9686 3.58095 28.919 5.53143 30.3514 8C31.7838 10.4381 32.5 13.1048 32.5 16C32.5 18.8952 31.7838 21.5771 30.3514 24.0457C28.919 26.4838 26.9686 28.419 24.5 29.8514C22.0619 31.2838 19.3952 32 16.5 32ZM16.82 23.9543C18.4657 23.9543 19.8219 23.4514 20.8886 22.4457C21.9857 21.44 22.5343 20.1295 22.5343 18.5143C22.5343 16.9295 22.0924 15.7257 21.2086 14.9029C20.3552 14.0495 19.4105 13.6076 18.3743 13.5771L21.7571 10.7429V8.22857H11.7V11.2H17.4143L13.4371 14.5371L15.2657 16.7771C15.7229 16.381 16.3019 16.1829 17.0029 16.1829C17.6429 16.1829 18.1762 16.4114 18.6029 16.8686C19.0295 17.2952 19.2429 17.859 19.2429 18.56C19.2429 19.2305 18.999 19.779 18.5114 20.2057C18.0543 20.6324 17.4752 20.8457 16.7743 20.8457C15.9514 20.8457 15.281 20.5867 14.7629 20.0686C14.2752 19.5505 13.9705 18.8495 13.8486 17.9657L10.8771 19.3371C11.1514 20.739 11.7914 21.8667 12.7971 22.72C13.8029 23.5429 15.1438 23.9543 16.82 23.9543Z" fill="#27705D"></path>
</svg>
