<svg width="33" height="32" viewBox="0 0 33 32" fill="none" xmlns="http://www.w3.org/2000/svg">
<path d="M16.5 32C13.6048 32 10.9229 31.2838 8.45429 29.8514C6.01619 28.419 4.08095 26.4838 2.64857 24.0457C1.21619 21.5771 0.5 18.8952 0.5 16C0.5 13.1048 1.21619 10.4381 2.64857 8C4.08095 5.53143 6.01619 3.58095 8.45429 2.14857C10.9229 0.71619 13.6048 0 16.5 0C19.3952 0 22.0619 0.71619 24.5 2.14857C26.9686 3.58095 28.919 5.53143 30.3514 8C31.7838 10.4381 32.5 13.1048 32.5 16C32.5 18.8952 31.7838 21.5771 30.3514 24.0457C28.919 26.4838 26.9686 28.419 24.5 29.8514C22.0619 31.2838 19.3952 32 16.5 32ZM18.6943 23.7714V8.22857H15.7229C15.54 9.23429 15.0676 10.0267 14.3057 10.6057C13.5438 11.1848 12.5229 11.52 11.2429 11.6114L11.7 15.1314C12.4619 15.0705 13.2086 14.8267 13.94 14.4C14.6714 13.9429 15.1895 13.3333 15.4943 12.5714V23.7714H18.6943Z" fill="#27705D"></path>
</svg>
